<svg xmlns="http://www.w3.org/2000/svg" xmlns:svg="http://www.w3.org/2000/svg" xmlns:xlink="http://www.w3.org/1999/xlink" id="svg11300" version="1.1" viewBox="0 0 48 48"><defs id="defs3"><linearGradient id="linearGradient12810"><stop id="stop12812" offset="0" stop-color="#fff"/><stop id="stop12814" offset="1" stop-color="#e5e5e5"/></linearGradient><radialGradient id="radialGradient12962" cx="30.204" cy="44.565" r="6.566" gradientTransform="matrix(3.3152351,0,0,1.9092258,-67.902541,-70.39967)" gradientUnits="userSpaceOnUse"><stop id="stop11510" offset="0" stop-color="#000"/><stop id="stop11512" offset="1" stop-color="#000" stop-opacity="0"/></radialGradient><linearGradient id="linearGradient3152" x1="84.999" x2="62.591" y1="25.21" y2="12.022" gradientTransform="matrix(1.4667332,0,0,1.4667332,-92.703593,-16.198495)" gradientUnits="userSpaceOnUse" xlink:href="#linearGradient12810"/><radialGradient id="radialGradient3156" cx="88.593" cy="33.399" r="7.006" gradientTransform="matrix(0.94940045,0.2233243,-0.19068279,0.81064734,-39.199481,-15.63917)" gradientUnits="userSpaceOnUse"><stop id="stop12830" offset="0" stop-color="#cccccd"/><stop id="stop12862" offset="0" stop-color="#adadae"/><stop id="stop12832" offset="1" stop-color="#8f8f90" stop-opacity="0"/></radialGradient><linearGradient id="linearGradient3159" x1="88.75" x2="92.062" y1="31.656" y2="36.656" gradientTransform="matrix(1.4667332,0,0,1.4667332,-92.017245,-15.855855)" gradientUnits="userSpaceOnUse"><stop id="stop12838" offset="0" stop-color="#515152"/><stop id="stop12840" offset="1" stop-color="#515152" stop-opacity="0"/></linearGradient><linearGradient id="linearGradient3166" x1="65.624" x2="87.529" y1="21.46" y2="21.46" gradientTransform="matrix(1.4667332,0,0,1.4667332,-92.703593,-16.198495)" gradientUnits="userSpaceOnUse" xlink:href="#linearGradient12810"/><clipPath id="clipPath86780" clipPathUnits="userSpaceOnUse"><rect id="rect86782" width="315.989" height="322.432" x="-274.381" y="-54.605" fill="#000" fill-opacity="1" fill-rule="nonzero" stroke="none" stroke-dasharray="none" stroke-miterlimit="4" stroke-opacity="1" stroke-width="38.815" opacity="1" transform="matrix(0.84956803,0.52747906,-0.30104747,0.95360916,0,0)"/></clipPath></defs><g id="layer2" display="inline"><g id="g86678" clip-path="url(#clipPath86780)" display="inline" transform="matrix(0.14959664,-0.08118176,0.04722657,0.13075292,41.644369,8.148145)"><circle id="circle8" cx="-77.897" cy="323.382" r="358" fill="none" stroke="#fe6230" stroke-width="24"/><circle id="circle10" cx="-77.897" cy="323.382" r="338" fill="none" stroke="#fef600" stroke-width="24"/><circle id="circle12" cx="-77.897" cy="323.382" r="318" fill="none" stroke="#0b0" stroke-width="24"/><circle id="circle14" cx="-77.897" cy="323.382" r="298" fill="none" stroke="#009bfe" stroke-width="24"/></g></g><g id="layer1" display="inline"><ellipse id="path12960" cx="32.229" cy="14.685" fill="url(#radialGradient12962)" fill-rule="evenodd" color="#000" opacity=".406" rx="21.768" ry="12.536" transform="matrix(0.88629303,0.46312489,-0.46462769,0.88550613,0,0)"/><path id="path12803" fill="#484848" fill-rule="evenodd" stroke="#4d4d4d" stroke-linecap="round" stroke-linejoin="round" stroke-miterlimit="10" stroke-width="2.135" d="m 11.799411,3.235053 -8.1585618,7.15039 0.274966,6.55392 L 23.120721,34.218657 35.496316,22.761038 35.770641,15.610433 11.799731,3.23484 Z" color="#000"/><path id="path12787" fill="#a6a6a6" fill-rule="evenodd" d="M 3.5476642,10.535949 3.8109952,16.856105 23.298766,33.974219 23.035115,27.12676 3.5473432,10.535949 Z" color="#000"/><path id="path12789" fill="#7f7f7f" fill-rule="evenodd" d="m 23.035008,27.12676 0,6.978751 12.377729,-11.455484 0.262584,-7.110043 -12.640313,11.586776 z" color="#000"/><path id="path12791" fill="url(#linearGradient3166)" fill-rule="evenodd" d="M 3.5476642,10.54769 23.299086,27.390411 35.675748,15.802568 11.71231,3.162256 3.5480912,10.54769 Z" color="#000"/><path id="path12793" fill="#ffc11a" fill-rule="evenodd" d="m 4.8243972,9.454659 3.068494,2.134827 c 0,0 0.724134,0.263651 1.053324,0 0.328764,-0.263651 0.263652,-1.053537 0.263652,-1.053537 l -3.068708,-2.41022 -1.316762,1.32893 z" color="#000"/><path id="path12795" fill="#ffc11a" fill-rule="evenodd" d="m 7.1027922,7.347692 3.1606118,2.134719 c 0,0 0.723705,0.263652 1.052469,0 0.329831,-0.262583 0.263651,-1.053537 0.263651,-1.053537 L 8.5112442,6.019295 7.1027922,7.347692 Z" color="#000"/><path id="path12797" fill="#ffc11a" fill-rule="evenodd" d="m 9.4329562,5.280859 3.0688128,2.226838 c 0,0 0.723707,0.263651 1.053538,0 C 13.88407,7.244366 13.81789,6.454266 13.81789,6.454266 L 10.658346,3.952569 9.4329562,5.280859 Z" color="#000"/><path id="path12820" fill="none" stroke="#fff" stroke-linecap="round" stroke-linejoin="round" stroke-miterlimit="10" stroke-width="1.067" d="M 11.830366,3.822878 4.2708362,10.906341 4.5256282,16.612735 22.960929,33.172591 34.794278,22.188904 35.048322,16.20605 11.829939,3.822985 Z" color="#000" opacity=".342"/><path id="path12822" fill="none" stroke="url(#linearGradient3159)" stroke-linecap="round" stroke-linejoin="bevel" stroke-miterlimit="10" stroke-width="5.337" d="m 31.827295,27.137434 c 0,0 6.233696,2.474265 9.534139,7.516727 3.299376,5.041395 5.133192,12.374528 5.133192,12.374528" color="#000"/><path id="path12824" fill="url(#radialGradient3156)" fill-rule="evenodd" d="m 32.507237,25.559797 c -0.889155,0.107808 -1.592581,0.803762 -1.707862,1.69185 -0.11528,0.888089 0.386404,1.740952 1.217919,2.072918 0,0 5.212181,2.844657 6.95847,5.512124 1.909603,2.917242 3.183028,7.683244 3.183028,7.683244 0.271123,1.0482 1.339604,1.679042 2.387804,1.407919 1.048201,-0.270056 1.679042,-1.339604 1.407919,-2.387805 0,0 -1.174155,-5.028586 -3.67297,-8.845657 -2.66213,-4.067914 -8.795489,-6.981953 -8.795489,-6.981953 -0.307416,-0.134494 -0.644718,-0.186798 -0.978819,-0.15264 z" color="#000"/><path id="path12801" fill="#a0a0a1" fill-rule="evenodd" d="m 15.135079,13.959144 16.063509,12.114079 c 1.843423,1.184829 3.621735,-0.197472 4.740384,-1.579773 1.119717,-1.3823 0.922246,-3.028252 -0.263651,-3.950498 l -17.117046,-9.217117 -3.423196,2.633309 z" color="#000"/><path id="path12799" fill="url(#linearGradient3152)" fill-rule="evenodd" d="m 14.476485,13.959144 16.459519,10.008071 c 0.921178,0.657527 2.895894,-0.132359 3.686847,-1.053537 0.789886,-0.922245 0.131292,-2.238367 -0.527302,-2.63331 l -15.668566,-9.349476 -3.950498,3.028252 z" color="#000"/></g><g id="layer3" display="inline" opacity=".97"><text id="text86685" x="13" y="43.875" fill="#000" fill-opacity="1" stroke="none" stroke-linecap="butt" stroke-linejoin="miter" stroke-opacity="1" stroke-width="1" font-family="FreeSans" font-size="80" font-stretch="normal" font-style="normal" font-variant="normal" font-weight="normal" letter-spacing="0" text-anchor="start" word-spacing="0" writing-mode="lr-tb" xml:space="preserve" style="line-height:125%;-inkscape-font-specification:'FreeSans, Normal';text-align:start"><tspan id="tspan86687" x="13" y="43.875" font-family="FreeSans" font-size="10" font-stretch="normal" font-style="normal" font-variant="normal" font-weight="normal" text-anchor="start" writing-mode="lr-tb" style="line-height:125%;-inkscape-font-specification:'FreeSans, Normal';text-align:start">Ásbrú</tspan></text><text id="text86685-6" x="15.171" y="46.885" fill="#000" fill-opacity="1" stroke="none" stroke-linecap="butt" stroke-linejoin="miter" stroke-opacity="1" stroke-width="1" display="inline" font-family="FreeSans" font-size="80" font-stretch="normal" font-style="normal" font-variant="normal" font-weight="normal" letter-spacing="0" opacity=".97" text-anchor="start" word-spacing="0" writing-mode="lr-tb" xml:space="preserve" style="line-height:125%;-inkscape-font-specification:'FreeSans, Normal';text-align:start"><tspan id="tspan86687-0" x="15.171" y="46.885" font-family="FreeSans" font-size="2.5" font-stretch="normal" font-style="normal" font-variant="normal" font-weight="normal" text-anchor="start" writing-mode="lr-tb" style="line-height:125%;-inkscape-font-specification:'FreeSans, Normal';text-align:start">connection manager</tspan></text></g><metadata id="metadata34"/></svg>