<svg xmlns="http://www.w3.org/2000/svg" xmlns:xlink="http://www.w3.org/1999/xlink" viewBox="0 0 48 48"><defs id="0"><linearGradient id="F"><stop id="b" stop-color="#555753"/><stop id="c" offset="1" stop-color="#eeeeec"/></linearGradient><linearGradient id="G"><stop id="d" stop-color="#fff" stop-opacity=".8"/><stop id="e" offset="1" stop-color="#fff" stop-opacity="0"/></linearGradient><linearGradient id="H"><stop id="f" stop-color="#2e3436"/><stop id="g" offset="1" stop-color="#555753"/></linearGradient><linearGradient id="I"><stop id="h" stop-color="#eeeeec"/><stop id="i" offset="1" stop-color="#d3d7cf"/></linearGradient><linearGradient id="J"><stop id="j" stop-color="#d3d7cf"/><stop id="k" offset="1" stop-color="#babdb6"/></linearGradient><linearGradient id="K"><stop id="l" stop-color="#2e3436"/><stop id="m" offset="1" stop-color="#2e3436" stop-opacity="0"/></linearGradient><radialGradient id="L" cx="24.708" cy="42.11" r="22.16" gradientTransform="matrix(1,0,0,0.09589041,0,38.073311)" gradientUnits="userSpaceOnUse" xlink:href="#K"/><linearGradient id="M" x2="0" y1="9.03" y2="38.969" gradientUnits="userSpaceOnUse" xlink:href="#J"/><linearGradient id="N" x2="0" y1="8.979" y2="39.02" gradientUnits="userSpaceOnUse" xlink:href="#G"/><linearGradient id="O" x2="0" y1="36.22" y2="11.781" gradientUnits="userSpaceOnUse" xlink:href="#J"/><linearGradient id="P" x1="12.28" x2="16.719" gradientUnits="userSpaceOnUse" xlink:href="#H"/><linearGradient id="Q" x1="21.78" x2="26.22" gradientUnits="userSpaceOnUse" xlink:href="#H"/><linearGradient id="R" x1="31.18" x2="35.619" gradientUnits="userSpaceOnUse" xlink:href="#H"/><linearGradient id="S" x2="0" y1="35.19" y2="12.813" gradientUnits="userSpaceOnUse" xlink:href="#G"/><linearGradient id="T" x2="0" y1="20.16" y2="23.594" gradientUnits="userSpaceOnUse" xlink:href="#I"/><linearGradient id="U" x2="0" y1="14.515" y2="33.485" gradientUnits="userSpaceOnUse" xlink:href="#F"/></defs><path id="1" fill="url(#L)" d="m 46.866049,42.111389 a 22.158171,2.1247561 0 1 1 -44.3163416,0 22.158171,2.1247561 0 1 1 44.3163416,0 z" opacity=".8" transform="matrix(1.0493151,0,0,-1.4518947,-1.9263496,100.27038)"/><path id="2" fill="#555753" d="m 5.21875,7.9375 c -1.108,0 -2,0.892 -2,2 l 0,28.125 c 0,1.108 0.892,2 2,2 l 37.5625,0 c 1.108,0 2,-0.892 2,-2 l 0,-28.125 c 0,-1.108 -0.892,-2 -2,-2 l -37.5625,0 z"/><path id="3" fill="url(#M)" d="m 5.21875,9.03125 c -0.5241331,0 -0.90625,0.3821169 -0.90625,0.90625 l 0,28.125 c 0,0.524133 0.3821169,0.90625 0.90625,0.90625 l 37.5625,0 c 0.524133,0 0.90625,-0.382117 0.90625,-0.90625 l 0,-28.125 c 0,-0.5241331 -0.382117,-0.90625 -0.90625,-0.90625 l -37.5625,0 z"/><path id="4" fill="none" stroke="url(#N)" stroke-linecap="round" stroke-linejoin="round" stroke-width="1.042" d="m 5.21875,9.5 c -0.2768191,0 -0.4375,0.1606809 -0.4375,0.4375 l 0,28.125 c 0,0.276819 0.1606809,0.4375 0.4375,0.4375 l 37.5625,0 c 0.276819,0 0.4375,-0.160681 0.4375,-0.4375 l 0,-28.125 C 43.21875,9.6606809 43.058069,9.5 42.78125,9.5 l -37.5625,0 z" opacity=".8"/><path id="5" fill="url(#O)" stroke="#888a85" d="m 7.5625,12.28125 0,23.4375 32.875,0 0,-23.4375 -32.875,0 z"/><g id="6" stroke="url(#U)"><rect id="V" width="4.439" height="18" x="21.78" y="15" fill="url(#Q)" stroke-linecap="square" stroke-linejoin="round" stroke-width=".97" rx="2.1"/><rect id="W" width="4.439" height="18" x="12.28" y="15" fill="url(#P)" stroke-linecap="square" stroke-linejoin="round" stroke-width=".97" rx="2.1"/><rect id="X" width="4.439" height="18" x="31.18" y="15" fill="url(#R)" stroke-linecap="square" stroke-linejoin="round" stroke-width=".97" rx="2.1"/></g><g id="7"><rect id="Y" width="8.698" height="5.125" x="10.151" y="19.802" fill="#2e3436" rx="1"/><rect id="Z" width="8.698" height="5.125" x="19.651" y="25.862" fill="#2e3436" rx="1"/><rect id="a" width="8.698" height="5.125" x="29.05" y="19.802" fill="#2e3436" rx="1"/></g><rect id="8" width="8.698" height="5.125" x="10.151" y="19.302" fill="#888a85" rx="1"/><path id="9" fill="url(#T)" d="M 11.15625,20.15625 C 11.052832,20.15625 11,20.209082 11,20.3125 l 0,3.125 c 0,0.103418 0.05283,0.15625 0.15625,0.15625 l 6.6875,0 C 17.947168,23.59375 18,23.54092 18,23.4375 l 0,-3.125 c 0,-0.103417 -0.05283,-0.15625 -0.15625,-0.15625 l -6.6875,0 z"/><rect id="A" width="8.698" height="5.125" x="19.651" y="25.363" fill="#888a85" rx="1"/><path id="B" fill="url(#T)" d="M 11.15625,20.15625 C 11.052832,20.15625 11,20.209082 11,20.3125 l 0,3.125 c 0,0.103418 0.05283,0.15625 0.15625,0.15625 l 6.6875,0 C 17.947168,23.59375 18,23.54092 18,23.4375 l 0,-3.125 c 0,-0.103417 -0.05283,-0.15625 -0.15625,-0.15625 l -6.6875,0 z" transform="translate(9.5002949,6.0606237)"/><rect id="C" width="8.698" height="5.125" x="29.05" y="19.302" fill="#888a85" rx="1"/><path id="D" fill="url(#T)" d="M 11.15625,20.15625 C 11.052832,20.15625 11,20.209082 11,20.3125 l 0,3.125 c 0,0.103418 0.05283,0.15625 0.15625,0.15625 l 6.6875,0 C 17.947168,23.59375 18,23.54092 18,23.4375 l 0,-3.125 c 0,-0.103417 -0.05283,-0.15625 -0.15625,-0.15625 l -6.6875,0 z" transform="translate(18.900005,-4.6484992e-8)"/><path id="E" fill="none" stroke="url(#S)" d="m 8.59375,13.3125 0,21.375 30.8125,0 0,-21.375 -30.8125,0 z" opacity=".8"/></svg>