<svg xmlns="http://www.w3.org/2000/svg" xmlns:svg="http://www.w3.org/2000/svg" id="svg3389" width="50" height="50" version="1.1" viewBox="0 0 50 50"><defs id="defs3391"><filter id="filter18963-0" width="1.122" height="5.393" x="-.061" y="-2.197" color-interpolation-filters="sRGB"><feGaussianBlur id="feGaussianBlur18965-9" stdDeviation="3.89"/></filter><linearGradient id="linearGradient3534" x1="1577" x2="1627.3" y1="1113.2" y2="1186.4" gradientTransform="matrix(0.4426619,0,0,0.4380449,-698.43282,-277.88632)" gradientUnits="userSpaceOnUse"><stop id="stop18945-8" offset="0" stop-color="#fff"/><stop id="stop18947-2" offset="1" stop-color="#fff" stop-opacity="0"/></linearGradient><filter id="filter22422-4" color-interpolation-filters="sRGB"><feGaussianBlur id="feGaussianBlur22424-5" stdDeviation="1.232"/></filter></defs><g id="layer5" transform="translate(0,-220)"><rect id="rect17756" width="43.03" height="42.78" x="1.355" y="220.76" fill="#333" stroke-width=".184" ry="6.839"/></g><g id="layer2" transform="translate(0,-220)"><ellipse id="path18953" cx="1732.25" cy="2215.875" fill="#000" filter="url(#filter18963-0)" rx="76.5" ry="2.125" transform="matrix(0.25662065,0,0,0.31141765,-422.33246,-423.69894)"/><path id="rect17756-0" fill="url(#linearGradient3534)" stroke-width=".184" d="m 8.758788,221.43317 h 28.835103 c 2.957272,0.13552 4.239916,1.46697 4.239916,1.46697 -21.273155,15.17173 -33.628692,27.95218 -36.9470465,39.28499 0,0 -2.9053997,-3.22289 -2.9053997,-5.51152 v -28.53528 c -0.2630219,-3.71512 2.6876097,-6.99135 6.7766902,-6.70606 z"/><g id="g16145-0-1-0" fill="none" stroke="#fff" stroke-width="1.573" filter="url(#filter22422-4)" transform="matrix(0.26451186,0,0,0.26298512,117.77759,404.6941)"><path id="rect15862-1-3-9" fill="none" stroke="#fff" stroke-width="1.573" d="m -397.75,-670.05 c -6.2826,0 -11.358,5.0754 -11.358,11.358 v 16.04 c 0,6.2826 5.0754,11.358 11.358,11.358 h 3.6415 v 8.9304 h -18.641 v 8.5836 h 50.287 v 8.9737 h -4.3785 c -6.2826,0 -11.315,5.0321 -11.315,11.315 v 16.083 c 0,6.2826 5.0321,11.315 11.315,11.315 h 16.083 c 6.2826,0 11.315,-5.0321 11.315,-11.315 v -16.083 c 0,-6.2826 -5.0321,-11.315 -11.315,-11.315 h -4.3785 v -8.9737 h 50.287 v -8.5836 h -19.335 v -8.9304 h 4.3351 c 6.2826,0 11.358,-5.0754 11.358,-11.358 v -16.04 c 0,-6.2826 -5.0754,-11.358 -11.358,-11.358 h -16.04 c -6.2826,0 -11.358,5.0754 -11.358,11.358 v 16.04 c 0,6.2826 5.0754,11.358 11.358,11.358 h 4.3351 v 8.9304 h -55.186 v -8.9304 h 5.0288 c 6.2826,0 11.358,-5.0754 11.358,-11.358 v -16.04 c 0,-6.2826 -5.0754,-11.358 -11.358,-11.358 h -16.04 z m 1.9942,6.7194 c 0.24998,-0.0252 0.52346,0 0.78033,0 h 10.491 c 4.1097,0 7.4131,3.3034 7.4131,7.4131 v 10.491 c 0,4.1097 -3.3034,7.4131 -7.4131,7.4131 h -10.491 c -4.1097,0 -7.4131,-3.3034 -7.4131,-7.4131 v -10.491 c 0,-3.8528 2.883,-7.0345 6.6327,-7.4131 z m 61.862,0 c 0.24998,-0.0252 0.52346,0 0.78032,0 h 10.491 c 4.1097,0 7.4131,3.3034 7.4131,7.4131 v 10.491 c 0,4.1097 -3.3034,7.4131 -7.4131,7.4131 h -10.491 c -4.1097,0 -7.4131,-3.3034 -7.4131,-7.4131 v -10.491 c 0,-3.8528 2.883,-7.0345 6.6328,-7.4131 z m -30.172,65.2 h 10.534 c 4.1097,0 7.4131,3.3034 7.4131,7.4131 v 10.534 c 0,4.1097 -3.3034,7.4131 -7.4131,7.4131 h -10.534 c -4.1097,0 -7.4131,-3.3034 -7.4131,-7.4131 v -10.534 c 0,-4.1097 3.3034,-7.4131 7.4131,-7.4131 z"/></g></g><g id="layer3" transform="translate(0,-220)"><rect id="rect17756-2" width="43.03" height="42.78" x="1.325" y="220.76" fill="none" stroke="#131312" stroke-width="1.362" ry="6.839"/></g><g id="layer4" transform="translate(0,-220)"><g id="g16145-0-1" fill="#fff" stroke="#fff" transform="matrix(0.26451186,0,0,0.26298512,117.77759,404.6941)"><path id="rect15862-1-3" fill="#fff" stroke="#fff" d="m -397.75,-670.05 c -6.2826,0 -11.358,5.0754 -11.358,11.358 v 16.04 c 0,6.2826 5.0754,11.358 11.358,11.358 h 3.6415 v 8.9304 h -18.641 v 8.5836 h 50.287 v 8.9737 h -4.3785 c -6.2826,0 -11.315,5.0321 -11.315,11.315 v 16.083 c 0,6.2826 5.0321,11.315 11.315,11.315 h 16.083 c 6.2826,0 11.315,-5.0321 11.315,-11.315 v -16.083 c 0,-6.2826 -5.0321,-11.315 -11.315,-11.315 h -4.3785 v -8.9737 h 50.287 v -8.5836 h -19.335 v -8.9304 h 4.3351 c 6.2826,0 11.358,-5.0754 11.358,-11.358 v -16.04 c 0,-6.2826 -5.0754,-11.358 -11.358,-11.358 h -16.04 c -6.2826,0 -11.358,5.0754 -11.358,11.358 v 16.04 c 0,6.2826 5.0754,11.358 11.358,11.358 h 4.3351 v 8.9304 h -55.186 v -8.9304 h 5.0288 c 6.2826,0 11.358,-5.0754 11.358,-11.358 v -16.04 c 0,-6.2826 -5.0754,-11.358 -11.358,-11.358 h -16.04 z m 1.9942,6.7194 c 0.24998,-0.0252 0.52346,0 0.78033,0 h 10.491 c 4.1097,0 7.4131,3.3034 7.4131,7.4131 v 10.491 c 0,4.1097 -3.3034,7.4131 -7.4131,7.4131 h -10.491 c -4.1097,0 -7.4131,-3.3034 -7.4131,-7.4131 v -10.491 c 0,-3.8528 2.883,-7.0345 6.6327,-7.4131 z m 61.862,0 c 0.24998,-0.0252 0.52346,0 0.78032,0 h 10.491 c 4.1097,0 7.4131,3.3034 7.4131,7.4131 v 10.491 c 0,4.1097 -3.3034,7.4131 -7.4131,7.4131 h -10.491 c -4.1097,0 -7.4131,-3.3034 -7.4131,-7.4131 v -10.491 c 0,-3.8528 2.883,-7.0345 6.6328,-7.4131 z m -30.172,65.2 h 10.534 c 4.1097,0 7.4131,3.3034 7.4131,7.4131 v 10.534 c 0,4.1097 -3.3034,7.4131 -7.4131,7.4131 h -10.534 c -4.1097,0 -7.4131,-3.3034 -7.4131,-7.4131 v -10.534 c 0,-4.1097 3.3034,-7.4131 7.4131,-7.4131 z"/></g><path id="circle4885" fill="#e97c25" fill-opacity="1" stroke="none" stroke-dasharray="none" stroke-miterlimit="4" stroke-opacity="1" stroke-width=".286" d="m 40.904729,250.07888 a 8.6210739,8.6210739 0 0 0 -8.62117,8.62119 8.6210739,8.6210739 0 0 0 8.62117,8.62078 8.6210739,8.6210739 0 0 0 8.621179,-8.62078 8.6210739,8.6210739 0 0 0 -8.621179,-8.62119 z m 0,0.54745 a 8.0736426,8.0736426 0 0 1 8.073781,8.07374 8.0736426,8.0736426 0 0 1 -8.073781,8.07332 8.0736426,8.0736426 0 0 1 -8.073771,-8.07332 8.0736426,8.0736426 0 0 1 8.073771,-8.07374 z" opacity="1"/><circle id="path4871" cx="40.905" cy="258.7" r="7.791" fill="#f0cd6b" fill-opacity="1" stroke="none" stroke-dasharray="none" stroke-miterlimit="4" stroke-opacity="1" stroke-width=".286" opacity="1"/><g id="g4922" fill="#6bb9f0" fill-opacity="1" transform="matrix(0.04927315,-0.02324474,0.02324474,0.04927315,-134.83749,175.53715)"><path id="path4924" fill="#f0cd6b" fill-opacity="1" stroke="none" stroke-dasharray="none" stroke-miterlimit="4" stroke-opacity="1" stroke-width="3" d="m 2260.9487,2542.5095 c -26.4294,0.018 -49.0929,18.8694 -53.9239,44.8535 39.3037,5.5876 74.2239,3.8691 107.8536,0 -4.8314,-25.9863 -27.4981,-44.8382 -53.9297,-44.8535 z" opacity="1"/><rect id="rect4926" width="12.22" height="14.117" x="2254.842" y="2525.19" fill="#6bb9f0" fill-opacity="1" stroke="none" stroke-dasharray="none" stroke-miterlimit="4" stroke-opacity="1" stroke-width="3" opacity="1" ry="6.11"/></g><path id="rect4934" fill="#f0cd6b" fill-opacity="1" stroke="none" stroke-dasharray="none" stroke-miterlimit="4" stroke-opacity="1" stroke-width=".286" d="m 35.638978,265.89867 -0.692816,1.60024 c -0.173973,0.40193 -0.126929,0.84445 0.21514,1.04632 0.342041,0.20186 0.761415,0.0366 1.019693,-0.31745 l 1.032713,-1.41559 a 8.6210739,8.6210739 0 0 1 -1.57473,-0.91352 z" opacity="1"/><path id="path4944" fill="#f0cd6b" fill-opacity="1" stroke="none" stroke-dasharray="none" stroke-miterlimit="4" stroke-opacity="1" stroke-width=".286" d="m 46.351968,265.89867 0.692816,1.60024 c 0.173973,0.40193 0.126929,0.84445 -0.21513,1.04632 -0.342051,0.20186 -0.761415,0.0366 -1.019693,-0.31745 l -1.032723,-1.41559 a 8.6210739,8.6210739 0 0 0 1.57473,-0.91352 z" opacity="1"/><g id="g4946" fill="#f0cd6b" fill-opacity="1" transform="matrix(-0.04927315,-0.02324474,-0.02324474,0.04927315,216.92785,175.53715)"><path id="path4948" fill="#f0cd6b" fill-opacity="1" stroke="none" stroke-dasharray="none" stroke-miterlimit="4" stroke-opacity="1" stroke-width="3" d="m 2260.9487,2542.5095 c -26.4294,0.018 -49.0929,18.8694 -53.9239,44.8535 39.3037,5.5876 74.2239,3.8691 107.8536,0 -4.8314,-25.9863 -27.4981,-44.8382 -53.9297,-44.8535 z" opacity="1"/><rect id="rect4950" width="12.22" height="14.117" x="2254.842" y="2525.19" fill="#f0cd6b" fill-opacity="1" stroke="none" stroke-dasharray="none" stroke-miterlimit="4" stroke-opacity="1" stroke-width="3" opacity="1" ry="6.11"/></g><path id="path5011-3" fill="#22313f" fill-opacity="1" stroke="none" stroke-width=".095" d="m 40.868458,251.69703 -0.603262,0.88378 h 0.335021 v 5.82692 0.56397 0.006 h 0.55739 v -0.006 h 4.252354 v 0.31393 l 0.887725,-0.60327 -0.887944,-0.60329 v 0.33527 h -4.252135 v -0.007 -5.82691 h 0.313923 z"/></g><metadata id="metadata23"/></svg>
