<svg xmlns="http://www.w3.org/2000/svg" xmlns:svg="http://www.w3.org/2000/svg" id="svg3519" width="50" height="50" version="1.1" viewBox="0 0 50 50"><defs id="defs3513"><linearGradient id="linearGradient24875" x1="368.17" x2="379.88" y1="367.55" y2="367.55" gradientTransform="matrix(0.7071,0.7071,-0.7071,0.7071,362.27,-93.062)" gradientUnits="userSpaceOnUse"><stop id="stop8086" offset="0" stop-color="#3F3F3F"/><stop id="stop8088" offset=".332" stop-color="#FFF"/><stop id="stop8090" offset=".528" stop-color="#FFF"/><stop id="stop8092" offset=".685" stop-color="#333"/><stop id="stop8094" offset=".843" stop-color="#A4A4A4"/><stop id="stop8096" offset=".871" stop-color="#9A9A9A"/><stop id="stop8098" offset=".919" stop-color="#7D7D7D"/><stop id="stop8100" offset=".983" stop-color="#4E4E4E"/><stop id="stop8102" offset="1" stop-color="#3F3F3F"/></linearGradient><linearGradient id="linearGradient24877" x1="368.17" x2="379.88" y1="408.34" y2="408.34" gradientTransform="matrix(0.7071,0.7071,-0.7071,0.7071,362.27,-93.062)" gradientUnits="userSpaceOnUse"><stop id="stop8107" offset="0" stop-color="#E4BD96"/><stop id="stop8109" offset=".23" stop-color="#D59658"/><stop id="stop8111" offset=".5" stop-color="#E4BD96"/><stop id="stop8113" offset=".775" stop-color="#D59658"/><stop id="stop8115" offset="1" stop-color="#E4BD96"/></linearGradient><linearGradient id="linearGradient24879" x1="372.07" x2="376.51" y1="414.03" y2="413.64" gradientTransform="matrix(0.7071,0.7071,-0.7071,0.7071,362.27,-93.062)" gradientUnits="userSpaceOnUse"><stop id="stop8120" offset="0" stop-color="#191919"/><stop id="stop8122" offset=".371" stop-color="#666"/><stop id="stop8124" offset=".392" stop-color="#565656"/><stop id="stop8126" offset=".436" stop-color="#3B3B3B"/><stop id="stop8128" offset=".486" stop-color="#252525"/><stop id="stop8130" offset=".544" stop-color="#161616"/><stop id="stop8132" offset=".617" stop-color="#0D0D0D"/><stop id="stop8134" offset=".718" stop-color="#060606"/><stop id="stop8136" offset="1" stop-color="#000"/></linearGradient><linearGradient id="linearGradient24881" x1="374.17" x2="374.17" y1="370.19" y2="404.66" gradientTransform="matrix(0.7071,0.7071,-0.7071,0.7071,362.27,-93.062)" gradientUnits="userSpaceOnUse"><stop id="stop8143" offset="0" stop-color="#FF0"/><stop id="stop8145" offset=".105" stop-color="#FFEC00"/><stop id="stop8147" offset=".257" stop-color="#FFD800"/><stop id="stop8149" offset=".431" stop-color="#FFCA00"/><stop id="stop8151" offset=".643" stop-color="#FFC200"/><stop id="stop8153" offset="1" stop-color="#FFBF00"/></linearGradient><linearGradient id="linearGradient24883" x1="378.12" x2="378.12" y1="402.65" y2="370.19" gradientTransform="matrix(0.7071,0.7071,-0.7071,0.7071,362.27,-93.062)" gradientUnits="userSpaceOnUse"><stop id="stop8158" offset="0" stop-color="#FFBF00"/><stop id="stop8160" offset=".02" stop-color="#F2B407"/><stop id="stop8162" offset=".128" stop-color="#BC8712"/><stop id="stop8164" offset=".246" stop-color="#946818"/><stop id="stop8166" offset=".375" stop-color="#78531A"/><stop id="stop8168" offset=".521" stop-color="#67461B"/><stop id="stop8170" offset=".699" stop-color="#5D3F1B"/><stop id="stop8172" offset="1" stop-color="#5A3D1B"/></linearGradient><linearGradient id="linearGradient24885" x1="369.96" x2="369.96" y1="402.23" y2="370.19" gradientTransform="matrix(0.7071,0.7071,-0.7071,0.7071,362.27,-93.062)" gradientUnits="userSpaceOnUse"><stop id="stop8177" offset="0" stop-color="#FFBF00"/><stop id="stop8179" offset=".02" stop-color="#F2B407"/><stop id="stop8181" offset=".128" stop-color="#BC8712"/><stop id="stop8183" offset=".246" stop-color="#946818"/><stop id="stop8185" offset=".375" stop-color="#78531A"/><stop id="stop8187" offset=".521" stop-color="#67461B"/><stop id="stop8189" offset=".699" stop-color="#5D3F1B"/><stop id="stop8191" offset="1" stop-color="#5A3D1B"/></linearGradient><linearGradient id="linearGradient24887" x1="504.91" x2="511.02" y1="385.27" y2="385.27" gradientTransform="matrix(-0.6676,-0.0135,0.0308,-1.5277,669.76,1053.2)" gradientUnits="userSpaceOnUse"><stop id="stop8230" offset="0" stop-color="#FFF"/><stop id="stop8232" offset="1" stop-color="#070606"/></linearGradient><linearGradient id="linearGradient24889" x1="376.39" x2="382.51" y1="281.03" y2="281.03" gradientTransform="matrix(0.6676,0.0135,-0.0308,1.5277,101.91,23.36)" gradientUnits="userSpaceOnUse"><stop id="stop8237" offset="0" stop-color="#FFF"/><stop id="stop8239" offset="1" stop-color="#070606"/></linearGradient><linearGradient id="linearGradient24891" x1="415.74" x2="421.85" y1="348.26" y2="348.26" gradientTransform="matrix(0.0268,0.6979,1.5269,-0.0586,-202.31,183.83)" gradientUnits="userSpaceOnUse"><stop id="stop8246" offset="0" stop-color="#FFF"/><stop id="stop8248" offset="1" stop-color="#070606"/></linearGradient><linearGradient id="linearGradient24893" x1="466.46" x2="472.57" y1="317.95" y2="317.95" gradientTransform="matrix(-0.0268,-0.6979,-1.5269,0.0586,838.57,760.49)" gradientUnits="userSpaceOnUse"><stop id="stop8253" offset="0" stop-color="#FFF"/><stop id="stop8255" offset="1" stop-color="#070606"/></linearGradient><linearGradient id="linearGradient24895" x1="373.93" x2="373.93" y1="357.68" y2="359.77" gradientTransform="matrix(0.7071,0.7071,-0.7071,0.7071,362.27,-93.062)" gradientUnits="userSpaceOnUse"><stop id="stop8262" offset="0" stop-color="#FFF"/><stop id="stop8264" offset=".107" stop-color="#FAFAFA"/><stop id="stop8266" offset=".231" stop-color="#ECECEC"/><stop id="stop8268" offset=".363" stop-color="#D5D5D5"/><stop id="stop8270" offset=".5" stop-color="#B5B5B5"/><stop id="stop8272" offset=".642" stop-color="#8B8B8B"/><stop id="stop8274" offset=".788" stop-color="#585858"/><stop id="stop8276" offset=".934" stop-color="#1D1D1D"/><stop id="stop8278" offset="1" stop-color="#000"/></linearGradient><linearGradient id="linearGradient24897" x1="433.31" x2="439.42" y1="373.48" y2="373.48" gradientTransform="matrix(0.7208,0.7218,-2.8534,2.8493,1118.2,-943.64)" gradientUnits="userSpaceOnUse"><stop id="stop8285" offset="0" stop-color="#FFF"/><stop id="stop8287" offset="1" stop-color="#070606"/></linearGradient><linearGradient id="linearGradient24899" x1="447.46" x2="453.57" y1="293.31" y2="293.31" gradientTransform="matrix(-0.7208,-0.7218,2.8534,-2.8493,-149.55,1592)" gradientUnits="userSpaceOnUse"><stop id="stop8292" offset="0" stop-color="#FFF"/><stop id="stop8294" offset="1" stop-color="#070606"/></linearGradient><linearGradient id="linearGradient24901" x1="516.89" x2="523" y1="377.46" y2="377.46" gradientTransform="matrix(-0.7208,-0.7218,2.8534,-2.8493,-335.13,1877.4)" gradientUnits="userSpaceOnUse"><stop id="stop8301" offset="0" stop-color="#FFF"/><stop id="stop8303" offset="1" stop-color="#070606"/></linearGradient><linearGradient id="linearGradient24903" x1="363.88" x2="369.99" y1="289.33" y2="289.33" gradientTransform="matrix(0.7208,0.7218,-2.8534,2.8493,932.61,-658.29)" gradientUnits="userSpaceOnUse"><stop id="stop8308" offset="0" stop-color="#FFF"/><stop id="stop8310" offset="1" stop-color="#070606"/></linearGradient></defs><metadata id="metadata3516"/><g id="layer1" transform="translate(0,-283.77083)"><path id="path8083" fill="#bf0000" stroke-width=".99" d="m 48.529996,293.99022 c 2.319869,-2.32778 -5.779876,-10.61854 -8.200694,-8.20069 -2.035823,2.03384 -4.956442,4.95545 -4.956442,4.95545 l 8.200695,8.19971 c 9.89e-4,0 2.837483,-2.83749 4.956441,-4.95447 z"/><polygon id="polygon8104" fill="url(#linearGradient24875)" points="368.49 437.95 373.5 432.94 365.22 424.66 360.2 429.67" transform="matrix(0.98970484,0,0,0.98970484,-324.11367,-131.50368)"/><polygon id="polygon8117" fill="url(#linearGradient24877)" points="331.55 466.54 340.29 449.59 348.57 457.87" transform="matrix(0.98970484,0,0,0.98970484,-324.11367,-131.50368)"/><polygon id="polygon8138" fill="url(#linearGradient24879)" points="331.55 466.54 338.04 463.23 334.88 460.07" transform="matrix(0.98970484,0,0,0.98970484,-324.11367,-131.50368)"/><g id="g8140" transform="matrix(0.98970484,0,0,0.98970484,-324.11367,-131.50368)"><polygon id="polygon8155" fill="url(#linearGradient24881)" points="365.1 433.29 363.33 431.52 351.78 443.07 341.51 453.35 341.14 453.48 340.75 453.87 340.73 457.66 344.46 457.64 344.81 456.65 355.08 446.37 366.63 434.82"/><polyline id="polyline8174" fill="url(#linearGradient24883)" points="343.72 457.81 348.57 457.87 358.85 447.59 369.12 437.31 366.63 434.82 355.08 446.37 343.68 457.77"/><polyline id="polyline8193" fill="url(#linearGradient24885)" points="341.51 453.35 351.78 443.07 363.33 431.52 360.85 429.03 350.57 439.31 340.29 449.59 340.72 454.22"/></g><g id="g8227" opacity=".6" transform="matrix(0.98970484,0,0,0.98970484,-324.11367,-131.50368)"><polygon id="polygon8234" fill="url(#linearGradient24887)" points="340.72 457.64 340.72 457.68 344.54 457.98 344.56 457.55"/><polygon id="polygon8241" fill="url(#linearGradient24889)" points="348.37 457.79 344.54 457.55 344.52 457.98 348.37 457.88"/></g><g id="g8243" opacity=".3" transform="matrix(0.98970484,0,0,0.98970484,-324.11367,-131.50368)"><polygon id="polygon8250" fill="url(#linearGradient24891)" points="340.8 457.56 340.75 457.57 340.37 453.57 340.8 453.55"/><polygon id="polygon8257" fill="url(#linearGradient24893)" points="340.49 449.57 340.8 453.57 340.37 453.59 340.4 449.58"/></g><g id="g8259" opacity=".4" transform="matrix(0.98970484,0,0,0.98970484,-324.11367,-131.50368)"><path id="path8280" fill="url(#linearGradient24895)" d="m 368.81,421.68 c 0.497,1.194 2.282,2.853 3.47,4.036 1.199,1.201 2.859,3.009 4.062,3.513 0.33,-1.042 -1.069,-3.456 -2.579,-4.968 -1.506,-1.503 -3.908,-2.901 -4.953,-2.581 z"/></g><g id="g8282" opacity=".6" transform="matrix(0.98970484,0,0,0.98970484,-324.11367,-131.50368)"><polygon id="polygon8289" fill="url(#linearGradient24897)" points="369 437.4 369.09 437.31 365.12 432.99 364.56 433.56"/><polygon id="polygon8296" fill="url(#linearGradient24899)" points="360.74 429.13 364.58 433.58 365.15 433.02 360.9 428.97"/></g><g id="g8298" opacity=".6" transform="matrix(0.98970484,0,0,0.98970484,-324.11367,-131.50368)"><polygon id="polygon8305" fill="url(#linearGradient24901)" points="365.19 424.64 365.1 424.72 369.06 429.05 369.62 428.48"/><polygon id="polygon8312" fill="url(#linearGradient24903)" points="373.44 432.91 369.61 428.46 369.04 429.02 373.28 433.08"/></g></g></svg>
