<svg xmlns="http://www.w3.org/2000/svg" xmlns:svg="http://www.w3.org/2000/svg" id="Capa_1" width="16" height="16" version="1.1" viewBox="0 0 16 16" xml:space="preserve"><metadata id="metadata41"/><g id="g4" fill="#fc0" transform="matrix(0.16000022,0,0,0.2,-1.625673e-4,9.9999998e-8)"><path id="path2" fill="#fc0" d="m 95.351,25 h -90.7 c -4.604,0 -4.834,2.241 -4.584,4.979 L 4.194,75.02 C 4.444,77.759 5.093,80 9.69,80 h 80.621 c 4.688,0 5.244,-2.241 5.494,-4.979 L 99.932,29.98 C 100.183,27.241 99.954,25 95.351,25 Z M 92.022,14 C 91.467,11.8 88.747,10 85.975,10 H 51.903 C 49.132,10 45.258,8.412 43.296,6.472 L 40.317,3.529 C 38.354,1.588 34.481,0 31.71,0 H 15.431 C 12.66,0 10.142,2.236 9.837,4.97 L 8.376,18 H 93.03 Z"/></g></svg>
